<?xml version="1.0" encoding="UTF-8" standalone="no"?>
<!-- Created with Inkscape (http://www.inkscape.org/) -->

<svg
   width="210mm"
   height="297mm"
   viewBox="0 0 210 297"
   version="1.1"
   id="svg73470"
   xml:space="preserve"
   inkscape:version="1.2.1 (9c6d41e, 2022-07-14)"
   sodipodi:docname="final_logo_shiny.svg"
   xmlns:inkscape="http://www.inkscape.org/namespaces/inkscape"
   xmlns:sodipodi="http://sodipodi.sourceforge.net/DTD/sodipodi-0.dtd"
   xmlns:xlink="http://www.w3.org/1999/xlink"
   xmlns="http://www.w3.org/2000/svg"
   xmlns:svg="http://www.w3.org/2000/svg"><sodipodi:namedview
     id="namedview73472"
     pagecolor="#505050"
     bordercolor="#eeeeee"
     borderopacity="1"
     inkscape:showpageshadow="0"
     inkscape:pageopacity="0"
     inkscape:pagecheckerboard="0"
     inkscape:deskcolor="#505050"
     inkscape:document-units="mm"
     showgrid="false"
     inkscape:zoom="1.1893044"
     inkscape:cx="418.73216"
     inkscape:cy="480.9534"
     inkscape:window-width="1309"
     inkscape:window-height="456"
     inkscape:window-x="0"
     inkscape:window-y="38"
     inkscape:window-maximized="0"
     inkscape:current-layer="layer1" /><defs
     id="defs73467"><linearGradient
       inkscape:collect="always"
       id="linearGradient74060"><stop
         style="stop-color:#000000;stop-opacity:1;"
         offset="0"
         id="stop74056" /><stop
         style="stop-color:#000000;stop-opacity:0;"
         offset="1"
         id="stop74058" /></linearGradient><radialGradient
       inkscape:collect="always"
       xlink:href="#linearGradient74060"
       id="radialGradient74066"
       cx="156.73111"
       cy="212.85356"
       fx="156.73111"
       fy="212.85356"
       r="125.9251"
       gradientTransform="matrix(1,0,0,1.4211324,0,-89.639534)"
       gradientUnits="userSpaceOnUse" /><filter
       style="color-interpolation-filters:sRGB;"
       inkscape:label="Pixel Smear"
       id="filter76128"
       x="-0.04179629"
       y="-0.028768746"
       width="1.1052353"
       height="1.075592"
       inkscape:menu-tooltip="Van Gogh painting effect for bitmaps"
       inkscape:menu="Distort"><feFlood
         flood-opacity="0.498039"
         flood-color="rgb(0,0,0)"
         result="flood"
         id="feFlood76118" /><feComposite
         in="flood"
         in2="SourceGraphic"
         operator="in"
         result="composite1"
         id="feComposite76120" /><feGaussianBlur
         in="composite1"
         stdDeviation="3.6"
         result="blur"
         id="feGaussianBlur76122" /><feOffset
         dx="5.6"
         dy="6"
         result="offset"
         id="feOffset76124" /><feComposite
         in="SourceGraphic"
         in2="offset"
         operator="over"
         result="fbSourceGraphic"
         id="feComposite76126" /><feColorMatrix
         result="fbSourceGraphicAlpha"
         in="fbSourceGraphic"
         values="0 0 0 -1 0 0 0 0 -1 0 0 0 0 -1 0 0 0 0 1 0"
         id="feColorMatrix76272" /><feTurbulence
         id="feTurbulence76274"
         type="fractalNoise"
         numOctaves="3"
         baseFrequency="0.25 0.4"
         seed="5"
         in="fbSourceGraphic" /><feColorMatrix
         id="feColorMatrix76276"
         result="result5"
         values="1 0 0 0 0 0 1 0 0 0 0 0 1 0 0 0 0 0 1 0 " /><feComposite
         in2="result5"
         id="feComposite76278"
         in="fbSourceGraphic"
         operator="in" /><feMorphology
         id="feMorphology76280"
         operator="dilate"
         radius="1.5"
         result="result3" /><feTurbulence
         id="feTurbulence76282"
         numOctaves="5"
         baseFrequency="0.03"
         type="fractalNoise"
         seed="7" /><feGaussianBlur
         id="feGaussianBlur76284"
         stdDeviation="0.5"
         result="result91" /><feDisplacementMap
         in2="result91"
         id="feDisplacementMap76286"
         in="result3"
         xChannelSelector="R"
         yChannelSelector="G"
         scale="27"
         result="result4" /><feComposite
         in2="result4"
         id="feComposite76288"
         in="result4"
         k3="0.8"
         k1="1.3"
         result="result2"
         operator="arithmetic" /><feBlend
         in2="result2"
         id="feBlend76290"
         mode="screen"
         in="result2" /></filter><radialGradient
       inkscape:collect="always"
       xlink:href="#linearGradient74060"
       id="radialGradient76329"
       gradientUnits="userSpaceOnUse"
       gradientTransform="matrix(1,0,0,1.4211324,0,-89.639534)"
       cx="156.73111"
       cy="212.85356"
       fx="156.73111"
       fy="212.85356"
       r="125.9251" /><radialGradient
       inkscape:collect="always"
       xlink:href="#linearGradient74060"
       id="radialGradient76331"
       gradientUnits="userSpaceOnUse"
       gradientTransform="matrix(1,0,0,1.4211324,0,-89.639534)"
       cx="156.73111"
       cy="212.85356"
       fx="156.73111"
       fy="212.85356"
       r="125.9251" /><radialGradient
       inkscape:collect="always"
       xlink:href="#linearGradient74060"
       id="radialGradient76333"
       gradientUnits="userSpaceOnUse"
       gradientTransform="matrix(1,0,0,1.4211324,0,-89.639534)"
       cx="156.73111"
       cy="212.85356"
       fx="156.73111"
       fy="212.85356"
       r="125.9251" /><radialGradient
       inkscape:collect="always"
       xlink:href="#linearGradient74060"
       id="radialGradient76335"
       gradientUnits="userSpaceOnUse"
       gradientTransform="matrix(1,0,0,1.4211324,0,-89.639534)"
       cx="156.73111"
       cy="212.85356"
       fx="156.73111"
       fy="212.85356"
       r="125.9251" /><radialGradient
       inkscape:collect="always"
       xlink:href="#linearGradient74060"
       id="radialGradient76337"
       gradientUnits="userSpaceOnUse"
       gradientTransform="matrix(1,0,0,1.4211324,0,-89.639534)"
       cx="156.73111"
       cy="212.85356"
       fx="156.73111"
       fy="212.85356"
       r="125.9251" /><radialGradient
       inkscape:collect="always"
       xlink:href="#linearGradient74060"
       id="radialGradient76339"
       gradientUnits="userSpaceOnUse"
       gradientTransform="matrix(1,0,0,1.4211324,0,-89.639534)"
       cx="156.73111"
       cy="212.85356"
       fx="156.73111"
       fy="212.85356"
       r="125.9251" /><radialGradient
       inkscape:collect="always"
       xlink:href="#linearGradient74060"
       id="radialGradient76341"
       gradientUnits="userSpaceOnUse"
       gradientTransform="matrix(1,0,0,1.4211324,0,-89.639534)"
       cx="156.73111"
       cy="212.85356"
       fx="156.73111"
       fy="212.85356"
       r="125.9251" /><radialGradient
       inkscape:collect="always"
       xlink:href="#linearGradient74060"
       id="radialGradient76343"
       gradientUnits="userSpaceOnUse"
       gradientTransform="matrix(1,0,0,1.4211324,0,-89.639534)"
       cx="156.73111"
       cy="212.85356"
       fx="156.73111"
       fy="212.85356"
       r="125.9251" /><radialGradient
       inkscape:collect="always"
       xlink:href="#linearGradient74060"
       id="radialGradient76345"
       gradientUnits="userSpaceOnUse"
       gradientTransform="matrix(1,0,0,1.4211324,0,-89.639534)"
       cx="156.73111"
       cy="212.85356"
       fx="156.73111"
       fy="212.85356"
       r="125.9251" /><radialGradient
       inkscape:collect="always"
       xlink:href="#linearGradient74060"
       id="radialGradient76347"
       gradientUnits="userSpaceOnUse"
       gradientTransform="matrix(1,0,0,1.4211324,0,-89.639534)"
       cx="156.73111"
       cy="212.85356"
       fx="156.73111"
       fy="212.85356"
       r="125.9251" /><radialGradient
       inkscape:collect="always"
       xlink:href="#linearGradient74060"
       id="radialGradient76349"
       gradientUnits="userSpaceOnUse"
       gradientTransform="matrix(1,0,0,1.4211324,0,-89.639534)"
       cx="156.73111"
       cy="212.85356"
       fx="156.73111"
       fy="212.85356"
       r="125.9251" /><radialGradient
       inkscape:collect="always"
       xlink:href="#linearGradient74060"
       id="radialGradient76351"
       gradientUnits="userSpaceOnUse"
       gradientTransform="matrix(1,0,0,1.4211324,0,-89.639534)"
       cx="156.73111"
       cy="212.85356"
       fx="156.73111"
       fy="212.85356"
       r="125.9251" /></defs><g
     inkscape:label="Layer 1"
     inkscape:groupmode="layer"
     id="layer1"><g
       id="g4423"
       transform="matrix(0.39440347,0,0,0.27274902,86.669847,42.821194)"
       style="stroke:url(#radialGradient74066);filter:url(#filter76128)"><path
         style="fill:#e73900;fill-opacity:1;fill-rule:evenodd;stroke:url(#radialGradient76329);stroke-width:1pt;stroke-linecap:butt;stroke-linejoin:miter;stroke-opacity:1"
         d="M 58.954538,347.23395 C -9.0375362,242.85087 73.060087,233.52847 52.118826,90.624027 103.47625,158.04097 117.81456,240.73539 139.37527,265.19403 c 14.88035,19.20859 22.21919,42.39489 20.21849,66.21726 -0.20173,18.85366 23.6251,41.69831 17.1098,59.3005 -34.64389,-27.74877 -94.232504,-9.66226 -117.749022,-43.47784 z"
         id="path2043"
         sodipodi:nodetypes="cccccc" /><path
         style="fill:#e73900;fill-opacity:1;fill-rule:evenodd;stroke:url(#radialGradient76331);stroke-width:1pt;stroke-linecap:butt;stroke-linejoin:miter;stroke-opacity:1"
         d="m 161.7809,377.71368 c 0.39304,-19.99024 -23.79616,-28.66237 -33.52622,-44.27447 -16.1147,-11.92496 -21.21929,-30.48684 -21.57498,-48.76583 -1.3098,-29.23369 24.74827,-203.542593 62.71113,-250.356153 -14.5484,71.885963 21.56903,167.642523 43.88285,199.320793 15.09957,24.61357 20.77625,52.95275 15.3373,80.83768 -2.67223,22.24724 -21.10113,35.61534 -31.07052,55.56907 -9.97252,12.01678 -23.54409,13.15533 -35.75956,7.66891 z"
         id="path2041"
         sodipodi:nodetypes="cccccccc" /><path
         style="fill:#e73900;fill-opacity:1;fill-rule:evenodd;stroke:url(#radialGradient76333);stroke-width:1pt;stroke-linecap:butt;stroke-linejoin:miter;stroke-opacity:1"
         d="m 175.5607,387.49258 c 5.78662,-17.36703 -5.66486,-44.89494 -9.27092,-61.00222 -9.78333,-14.50379 -8.83797,-32.01615 -4.1256,-48.07773 6.93672,-25.87513 8.08193,-147.98087 120.02513,-205.321883 -86.81755,85.182623 -29.17042,154.410883 -19.77233,187.745483 5.49049,25.33327 2.68381,51.73715 -9.69747,74.51982 -17.09362,31.45379 -62.73308,48.78925 -77.15881,52.13653 z"
         id="path2063"
         sodipodi:nodetypes="cccccsc" /><path
         style="fill:#e78c00;fill-opacity:1;fill-rule:evenodd;stroke:url(#radialGradient76335);stroke-width:1pt;stroke-linecap:butt;stroke-linejoin:miter;stroke-opacity:1"
         d="m 157.11595,377.31308 c 0.29729,-16.31975 -17.99897,-23.39955 -25.35861,-36.14505 -12.18886,-9.73537 -16.04987,-24.88902 -16.31891,-39.81173 -0.99071,-23.86597 23.32574,-150.04614 42.82692,-204.387226 -13.30745,123.179276 20.92102,136.860986 37.79878,162.722676 11.42103,20.09417 15.71477,43.22988 11.60085,65.99474 -2.02123,18.16233 -10.73397,34.71702 -18.27463,51.00696 -7.54302,9.81033 -23.03485,5.09867 -32.2744,0.61963 z"
         id="path1305"
         sodipodi:nodetypes="cccccccc" /><path
         style="fill:#e78c00;fill-opacity:1;fill-rule:evenodd;stroke:url(#radialGradient76337);stroke-width:1pt;stroke-linecap:butt;stroke-linejoin:miter;stroke-opacity:1"
         d="m 86.962916,353.92652 c -69.840645,-71.70464 6.256738,-76.69827 -13.112495,-175.17471 23.002985,46.4166 42.077879,81.28576 50.453849,114.24383 12.39538,11.63807 55.22529,82.68294 52.65834,95.56353 -26.99224,-15.36667 -69.88969,-13.98593 -89.999694,-34.63265 z"
         id="path2061"
         sodipodi:nodetypes="ccccs" /><path
         style="fill:#e7e100;fill-opacity:1;fill-rule:evenodd;stroke:url(#radialGradient76339);stroke-width:1pt;stroke-linecap:butt;stroke-linejoin:miter;stroke-opacity:1"
         d="M 100.90993,349.60902 C 59.13153,309.94963 90.331519,286.66405 89.958257,237.12916 c 11.549273,43.35274 48.079753,54.03502 47.610733,80.07767 6.03491,7.79028 37.6343,63.34456 34.99194,70.48334 -14.05024,-11.25385 -55.82176,-23.05478 -71.651,-38.08115 z"
         id="path2051"
         sodipodi:nodetypes="ccccs" /><path
         style="fill:#e78c00;fill-opacity:1;fill-rule:evenodd;stroke:url(#radialGradient76341);stroke-width:1pt;stroke-linecap:butt;stroke-linejoin:miter;stroke-opacity:1"
         d="m 168.06466,344.26386 c -7.34039,-10.88214 -6.63109,-24.0216 -3.09542,-36.07254 5.2046,-19.41401 28.07134,-127.32404 60.73809,-150.79486 -23.59103,44.36027 7.42986,112.59653 14.48121,137.60735 4.11949,19.00746 5.27165,41.48988 -7.27598,55.91194 -18.9554,21.78707 -42.88182,34.47506 -56.28999,37.51705 -8.52364,5.98155 -5.85229,-32.08371 -8.55791,-44.16894 z"
         id="path2045"
         sodipodi:nodetypes="ccccscc" /><path
         style="fill:#e7e100;fill-opacity:1;fill-rule:evenodd;stroke:url(#radialGradient76343);stroke-width:1pt;stroke-linecap:butt;stroke-linejoin:miter;stroke-opacity:1"
         d="m 156.26263,378.50754 c 0.58986,-9.98438 -10.43516,-14.77626 -14.6226,-22.76365 -7.21937,-6.26512 -9.20458,-15.63948 -8.99637,-24.78268 -0.0101,-14.63677 -0.50958,-105.87648 18.02599,-128.55794 -8.20394,35.6561 22.69143,88.8079 32.37859,105.06359 6.49038,12.58815 8.54105,26.86036 5.45339,40.69541 -1.69139,11.06943 -7.43952,20.98736 -12.46341,30.77248 -4.86341,5.81789 -14.23058,2.54602 -19.77559,-0.42721 z"
         id="path1310"
         sodipodi:nodetypes="cccccccc" /><path
         style="fill:#e7e100;fill-opacity:1;fill-rule:evenodd;stroke:url(#radialGradient76345);stroke-width:1pt;stroke-linecap:butt;stroke-linejoin:miter;stroke-opacity:1"
         d="m 165.07971,379.78285 c 4.74577,-6.95045 -1.13754,-15.17906 -0.70358,-22.75532 -2.49934,-7.6452 0.12406,-15.26957 4.23044,-21.77806 6.32576,-10.56763 17.44222,-89.10138 40.63311,-97.45039 -21.34853,22.18304 15.72363,81.49477 15.68122,97.41785 -0.76263,11.89305 -15.23012,27.96655 -23.44465,36.61523 -6.01023,7.25688 -17.90489,14.23077 -25.76444,19.11887 -6.02721,-3.66386 -7.91678,-6.6232 -10.6321,-11.16818 z"
         id="path2047"
         sodipodi:nodetypes="cccccccc" /><path
         style="fill:#ffff9e;fill-opacity:1;fill-rule:evenodd;stroke:url(#radialGradient76347);stroke-width:1pt;stroke-linecap:butt;stroke-linejoin:miter;stroke-opacity:1"
         d="m 157.0795,371.83477 c -14.75607,-23.24143 -9.28153,-49.17026 -3.00634,-77.45115 2.85864,19.18916 14.76662,42.47567 21.49823,50.11206 4.64589,5.99724 6.9372,13.23638 6.31255,20.67411 -0.063,5.88643 -3.05125,13.0189 -5.08543,18.5146 -10.8164,-8.66363 -12.37677,-1.29185 -19.71901,-11.84962 z"
         id="path2049"
         sodipodi:nodetypes="cccccc" /><path
         style="fill:#ffff9e;fill-opacity:1;fill-rule:evenodd;stroke:url(#radialGradient76349);stroke-width:1pt;stroke-linecap:butt;stroke-linejoin:miter;stroke-opacity:1"
         d="m 173.66742,360.30753 c 11.43123,-25.04462 0.11491,-44.76145 26.31412,-64.40898 -7.82358,18.2147 10.06971,46.97556 8.12273,56.94846 -3.27428,16.7716 -25.8851,29.25442 -31.60084,30.54705 1.36171,-13.79126 -7.68024,-11.174 -2.83601,-23.08653 z"
         id="path2065"
         sodipodi:nodetypes="ccscc" /><path
         style="fill:#ffff9e;fill-opacity:1;fill-rule:evenodd;stroke:url(#radialGradient76351);stroke-width:1pt;stroke-linecap:butt;stroke-linejoin:miter;stroke-opacity:1"
         d="M 92.049535,278.33689 C 153.50277,356.0529 152.14455,316.81741 176.51446,383.37417 60.355771,331.65699 112.48851,336.32499 92.049535,278.33689 Z"
         id="path2067"
         sodipodi:nodetypes="ccc" /></g></g></svg>
